<?xml version="1.0" encoding="utf-8"?>
<!-- Generator: Adobe Illustrator 16.0.0, SVG Export Plug-In . SVG Version: 6.00 Build 0)  -->
<!DOCTYPE svg PUBLIC "-//W3C//DTD SVG 1.1//EN" "http://www.w3.org/Graphics/SVG/1.1/DTD/svg11.dtd">
<svg version="1.1" id="Layer_1" xmlns="http://www.w3.org/2000/svg" xmlns:xlink="http://www.w3.org/1999/xlink" x="0px" y="0px"
	 width="129.622px" height="144.791px" viewBox="0 0 129.622 144.791" enable-background="new 0 0 129.622 144.791"
	 xml:space="preserve">
<g>
	<g>
		<g>
			<g>
				<path fill="#010101" d="M115.963,122.326c-1.88,0.076-7.752,2.322-14.284,6.803c-4.92,3.375-11.039,8.342-18.022,11.27
					c-6.986,2.928-14.374,4.393-22.164,4.393c-12.573,0-23.493-2.74-32.761-8.221c-9.269-5.48-16.375-13.109-21.317-22.889
					C2.471,103.902,0,93.748,0,83.216c0-10.53,2.417-20.402,7.253-29.618c4.835-9.214,11.712-16.401,20.632-21.559
					c8.918-5.158,19.262-7.737,31.028-7.737c7.521,0,14.466,0.981,20.833,2.942c6.367,1.962,6.489,5.788,10.17,8.581
					c3.679,2.795,3.67,0.783,3.67,2.233c0,2.257,1.152,2.349,1.044,4.174c-0.108,1.828,5.384,7.565,5.384,7.94
					c0,0.645-6.554-5.913-6.179-4.598c0.375,1.317,0.05,2.822,0.05,3.95c0,1.773,7.292,2.968,5.089,2.968
					c-0.699,0-7.668-21.532-8.336-14.435c-0.089,0.947,4.54,10.481,3.198,7.517c-2.851-6.303-7.073-3.405-10.354-6.261
					c-5.755-5.011-13.797-7.517-24.122-7.517c-13.286,0-23.627,4.831-31.022,14.49c-7.396,9.658-11.093,22.129-11.093,37.411
					c0,16.628,4.001,29.771,12.008,39.43c8.005,9.66,23.456,21.186,70.333,3.951"/>
			</g>
		</g>
		<g>
			<g>
				<path fill-rule="evenodd" clip-rule="evenodd" d="M105.92,53.6l-5.745-5.882c0,0-0.657-0.546-1.741-3.826
					c-1.083-3.28-1.243-5-0.979-5.89c0.265-0.892-0.072-6.407-0.777-7.469c-0.705-1.062-6.291-5.225-6.291-5.225
					s-0.671-2.288-1.29-5.514c-0.685-3.569-3.093-9.075,1.987-14.41c0.979-1.028,5.501-1.767,5.253-1.949
					C95.594,2.892,87.283,3.926,85.625,8.5c-2.208,6.098-1.764,10.911-1.764,10.911s-2.086-4.748-0.937-9.188
					c1.15-4.44,3.408-9.07,4.61-10.134c1.201-1.065-9.443,7.548-7.961,15.125c1.481,7.578-3.252-6.782-3.252-6.782l-3.74-6.958
					c0,0,5.679,13.602,5.216,17.026c-0.463,3.423-0.436,0.907-0.436,0.907l-4.841-7.353c0,0,1.247,5.367,1.359,6.537
					c0,0,0.659,4.977-6.208-3.308c0,0,4.53,6.502,4.727,8.57c0,0-4.43-4.791-5.415-5.133c0,0,2.113,2.231,3.586,5.042
					c1.474,2.81,4.144,11.058,4.144,11.058l16.422,18.242c0,0,0.626,0.202,2.065,0.762c1.438,0.562,4.348,2.978,4.348,2.978
					s-5.893-0.928-9.727-3.953c-3.833-3.026,7.006,5.675,9.732,6.813c2.553,1.067-8.799-0.485-8.799-0.485s3.284,1.776,5.411,2.272
					c2.126,0.497,5.125-0.821,6.27,2.193c1.146,3.015,4.293,3.432,4,5.887c-0.101,0.844,1.279-0.427,1.349-3.347
					c0.095-3.935,5.03-6.021,3.42-8.553c-1.927-3.029-0.024-1.844-1.126-3.188C106.852,52.946,105.92,53.6,105.92,53.6z"/>
			</g>
			<g>
				<path fill="#010101" d="M66.668,24.671c0,0-8.038-5.081-14.64-4.771c0,0,8.459,2.373,10.729,5.674
					c0,0-14.648-6.086-20.116-3.714c0,0,7.314,0.722,12.013,3.714c0,0-16.655-4.539-23.463,0c0,0,14.648,0.103,18.259,3.713"/>
			</g>
			<g>
				<path fill="#010101" d="M77.063,37.368l-8.701-3.647c0,0-0.377-3.506,1.548-3.093l-1.55-0.026c0,0-0.546,1.935-0.409,3.117
					l-3.279-0.813c0,0-0.539-2.21,0.699-3.62c1.238-1.41-1.032,0-1.032,0s-0.413,3.233-0.138,3.507c0.275,0.275-3.198-0.1-3.198-0.1
					s-0.349-2.337,1.547-3.407c2.269-1.279-1.908-0.361-1.908-0.361s0.033,3.007,0,3.713c-0.018,0.365-3.01,0.124-3.01,0.124
					s-1.41-2.894-0.103-3.477c1.307-0.583-1.238,0-1.238,0s0.653,2.754,0.86,3.235c0.206,0.482-2.786,0.172-2.786,0.172
					s-0.757-2.411-0.138-3.407h-1.306c0,0,0.665,2.789,0.997,3.271c0.332,0.48-3.549,0.063-3.549,0.063l0.833-3.091l2.35-2.063
					l11.61-0.756l13.479,3.095l4.952,4.676"/>
			</g>
		</g>
	</g>
	<g>
		<path fill="#010101" d="M64.029,60.729c7.975,0,14.241,2.734,18.799,8.203c4.557,5.469,6.836,11.61,6.836,18.423
			c0,5.036-1.236,9.639-3.708,13.809c-2.473,4.17-5.697,7.109-9.673,8.818c-3.977,1.709-8.198,2.563-12.664,2.563
			c-7.269,0-13.319-2.529-18.149-7.588c-4.831-5.059-7.246-11.484-7.246-19.277c0-4.079,1.071-8.112,3.213-12.1
			c2.142-3.987,5.167-7.126,9.075-9.417C54.418,61.874,58.924,60.729,64.029,60.729z M63.824,109.298
			c4.292,0,7.87-0.947,10.734-2.842c2.865-1.893,4.914-4.227,6.146-7c1.233-2.771,1.85-6.463,1.85-11.074
			c0-7.963-1.667-14.051-5-18.261c-3.333-4.21-7.841-6.316-13.526-6.316c-5.867,0-10.455,2.163-13.765,6.487
			c-3.31,4.324-4.965,9.453-4.965,15.387C45.298,101.425,51.473,109.298,63.824,109.298z"/>
	</g>
	<g>
		<path fill="#010101" d="M98.171,130.417c0,0,5.667-3.779,4.75,7.25c0,0,3.416-14.351,26.583-19.176
			c2.769-0.576-44.501,8.49-39.167,8c13.375-1.229,6.833,3.5,6.833,3.5"/>
	</g>
</g>
</svg>
